<!--?xml version="1.0" standalone="no"?-->              <svg id="sw-js-blob-svg" viewBox="0 0 100 100" xmlns="http://www.w3.org/2000/svg">                    <defs>                         <linearGradient id="sw-gradient" x1="0" x2="1" y1="1" y2="0">                            <stop id="stop1" stop-color="rgba(248, 117, 55, 1)" offset="0%"></stop>                            <stop id="stop2" stop-color="rgba(251, 168, 31, 1)" offset="100%"></stop>                        </linearGradient>                    </defs>                <path fill="url(#sw-gradient)" d="M24,-29.6C29.2,-24.2,30.3,-14.9,31.4,-6C32.5,3,33.5,11.4,30.9,19.6C28.3,27.8,22.1,35.7,14.3,37.9C6.6,40.1,-2.8,36.7,-12.3,33.4C-21.8,30.1,-31.6,27,-36.1,20.3C-40.6,13.6,-39.9,3.4,-36.3,-4.6C-32.7,-12.5,-26.3,-18.1,-19.8,-23.3C-13.3,-28.4,-6.6,-33.1,1.4,-34.7C9.4,-36.3,18.7,-34.9,24,-29.6Z" width="100%" height="100%" transform="translate(50 50)" stroke-width="0" style="transition: 0.3s;"></path>              </svg>