<svg xmlns="http://www.w3.org/2000/svg" viewBox="0 0 268.858 64"><path fill="#DC0018" d="M0 0h64v64H0z"/><path fill="#FFF" d="M53.344 25.595l-14.94.015V10.656H25.596V25.61l-14.941-.015v12.807h14.94v14.941h12.807V38.402h14.941V25.595z"/><path d="M88.94 10.056h-5.886V.492h-5.046V25.51h5.046V14.401h5.887V25.51h5.045V.491H88.94zM104.771 0c-7.568 0-8.515 5.396-8.515 13s.947 13 8.515 13 8.515-5.396 8.515-13-.946-13-8.515-13zm0 22.285c-2.978 0-3.469-2.558-3.469-9.285 0-6.692.49-9.286 3.47-9.286 2.978 0 3.469 2.594 3.469 9.286 0 6.727-.491 9.285-3.47 9.285zm21.521-4.345c0 2.488-.56 4.345-2.942 4.345-2.383 0-2.943-1.857-2.943-4.344V.49h-5.047v17.45c0 6.692 3.89 8.059 7.99 8.059s7.989-1.718 7.989-8.06V.49h-5.047v17.45zm18.565-6.236l-3.89-1.683c-2.137-.911-2.592-1.857-2.592-3.399 0-1.506.596-2.908 2.873-2.908 1.961 0 2.734 1.332 2.734 3.714h4.835v-.7c0-4.801-3.259-6.728-7.744-6.728-4.8 0-7.745 2.454-7.745 7.358 0 3.75 1.719 5.677 5.398 7.148l3.748 1.507c1.473.595 1.892 1.682 1.892 3.188 0 2.104-1.471 3.084-3.012 3.084-2.664 0-3.33-1.507-3.33-3.854v-.736h-5.045v1.016c0 4.626 2.242 7.289 7.954 7.289 5.465 0 8.69-2.384 8.69-7.675 0-3.083-.981-4.94-4.766-6.621zm11.6 2.942h8.409v-4.134h-8.41V4.625h8.936V.491H151.41v25.018h14.331v-4.135h-9.284zM183.961 0c-7.568 0-8.514 5.396-8.514 13s.946 13 8.514 13c7.57 0 8.515-5.396 8.515-13s-.945-13-8.515-13zm0 22.285c-2.978 0-3.468-2.558-3.468-9.285 0-6.692.49-9.286 3.468-9.286 2.979 0 3.47 2.594 3.47 9.286 0 6.727-.491 9.285-3.47 9.285zm24.767-17.66V.491h-13.981v25.018h5.046V14.646h8.41v-4.134h-8.41V4.625zM88.88 49.703l-3.89-1.682c-2.138-.91-2.593-1.857-2.593-3.399 0-1.506.595-2.908 2.873-2.908 1.961 0 2.733 1.332 2.733 3.715h4.836v-.702c0-4.8-3.26-6.727-7.744-6.727-4.8 0-7.744 2.453-7.744 7.359 0 3.749 1.717 5.677 5.395 7.148l3.75 1.506c1.472.596 1.893 1.683 1.893 3.19 0 2.103-1.472 3.083-3.014 3.083-2.663 0-3.33-1.507-3.33-3.854v-.736H77v1.016C77 61.337 79.243 64 84.954 64c5.466 0 8.69-2.383 8.69-7.674 0-3.083-.981-4.94-4.764-6.623zm23.451 7.289h-.069L109.32 38.49h-4.836l-2.944 18.5h-.07l-2.767-18.5h-4.837l4.556 25.018h5.641l2.804-18.15h.07l2.803 18.15h5.641l4.555-25.018h-4.834zm9.312-18.501h5.045v25.02h-5.045zm6.745 4.134h5.467V63.51h5.046V42.625h5.466v-4.134h-15.978zm31.874-.315v-3.82H145.86v4.135h8.586L145.23 59.83v3.68h15.172v-4.135h-9.496zm7.009 10.337h8.41v-4.134h-8.41v-5.888h8.935v-4.134h-13.982v25.018h14.332v-4.134h-9.285zm26.912 6.167c-.106-5.292-.597-7.183-4.03-7.638v-.07c2.838-.596 4.169-2.804 4.169-6.168 0-4.31-2.488-6.447-6.658-6.447h-9.321v25.018h5.047V52.928h2.698c2.067 0 2.907 1.19 2.978 3.153l.106 4.03c.069 1.331.14 2.698.665 3.398h5.465v-.21c-.945-.525-1.085-1.822-1.12-4.485zm-8.691-9.39h-2.102v-7.22h2.382c2.348 0 3.504 1.157 3.504 3.47 0 2.698-1.366 3.75-3.784 3.75zm16.644-10.934h-5.045v25.02h13.981v-4.135h-8.936zm16.389 0l-6.622 25.02h5.255l1.158-5.291h6.656l1.157 5.29h5.257l-6.624-25.018h-6.237zm.666 15.593l2.417-11.247h.071l2.418 11.247h-4.906zm25.602 1.543h-.07l-6.098-17.135h-5.816v25.018h4.626V45.99h.07l6.166 17.52h5.746V38.491h-4.624zM260.59 38.49h-8.27v25.02h7.954c6.692 0 8.584-4.03 8.584-12.861 0-7.393-1.295-12.158-8.269-12.158zm-.982 21.305h-2.243v-17.59h2.138c3.819 0 4.31 2.908 4.31 8.584 0 6.799-.702 9.006-4.205 9.006z" fill="#1A171B"/></svg>